#!OML:ASF H:\ManfredETheater\Project 1\Capture day 1\Session 1\subject.ASF
:FULLY-SPECIFIED
:DEGREES
139
root 1.63164 17.0926 34.0278 -174.717 -4.38575 178.854
lowerback 1.11066 -0.880143 -2.12086
upperback -3.32594 -1.2911 1.43402
thorax -3.9714 -0.592052 2.72984
lowerneck -19.1796 -0.873316 -2.58264
upperneck 23.9709 -1.41299 1.34075
head 10.9475 -0.956711 0.661241
rclavicle -5.72748e-015 -1.51076e-014
rhumerus -36.8672 -7.51591 -80.912
rradius 29.0046
rwrist 3.46155
rhand -18.7216 -11.276
rfingers 7.12502
rthumb 7.5739 -41.1204
lclavicle -5.72748e-015 -1.51076e-014
lhumerus -32.9245 5.71899 88.7217
lradius 26.445
lwrist -17.8178
lhand -10.1838 10.1759
lfingers 7.12502
lthumb 15.8066 39.5505
rfemur -13.6223 -0.963966 16.1403
rtibia 34.6956
rfoot -22.3839 -12.8773
rtoes 4.97212
lfemur -16.4798 -4.38406 -19.044
ltibia 36.8091
lfoot -22.4901 2.46838
ltoes 0.971631
140
root 1.62767 17.092 34.0194 -174.655 -4.39562 178.835
lowerback 1.18351 -0.877175 -2.10565
upperback -3.27686 -1.28413 1.4344
thorax -3.9623 -0.588153 2.72208
lowerneck -19.1967 -0.869899 -2.58375
upperneck 23.9747 -1.40708 1.34192
head 10.9521 -0.953505 0.662746
rclavicle -1.31198e-014 1.82882e-014
rhumerus -36.8065 -7.47983 -80.9347
rradius 29.0283
rwrist 3.44547
rhand -18.7121 -11.2482
rfingers 7.12502
rthumb 7.58308 -41.0923
lclavicle -1.31198e-014 1.82882e-014
lhumerus -32.8668 5.67024 88.7754
lradius 26.4627
lwrist -17.7859
lhand -10.1818 10.1644
lfingers 7.12502
lthumb 15.8086 39.5389
rfemur -13.6668 -0.964291 16.1087
rtibia 34.7171
rfoot -22.4092 -12.8884
rtoes 4.94481
lfemur -16.5242 -4.38464 -19.0745
ltibia 36.8215
lfoot -22.5079 2.46113
ltoes 0.955628
141
root 1.62357 17.0915 34.0107 -174.59 -4.40427 178.817
lowerback 1.25844 -0.874943 -2.09142
upperback -3.22939 -1.27831 1.43608
thorax -3.95596 -0.58478 2.71634
lowerneck -19.2071 -0.864281 -2.58763
upperneck 23.9825 -1.3994 1.3471
head 10.9569 -0.949629 0.666402
rclavicle -3.926e-015 -1.23246e-014
rhumerus -36.7488 -7.43711 -80.9587
rradius 29.0529
rwrist 3.42777
rhand -18.7089 -11.2412
rfingers 7.12502
rthumb 7.58614 -41.0851
lclavicle -3.926e-015 -1.23246e-014
lhumerus -32.816 5.61099 88.8352
lradius 26.4912
lwrist -17.7439
lhand -10.1849 10.1481
lfingers 7.12502
lthumb 15.8056 39.5228
rfemur -13.7122 -0.963343 16.0764
rtibia 34.7366
rfoot -22.4342 -12.8982
rtoes 4.93163
lfemur -16.5701 -4.38728 -19.1059
ltibia 36.8339
lfoot -22.5245 2.4562
ltoes 0.940225
142
root 1.61941 17.0911 34.0018 -174.523 -4.41137 178.8
lowerback 1.3354 -0.871844 -2.07548
upperback -3.1787 -1.27117 1.43799
thorax -3.94752 -0.580814 2.7098
lowerneck -19.2294 -0.859129 -2.59216
upperneck 23.9962 -1.39292 1.35648
head 10.9662 -0.945738 0.671482
rclavicle 1.0197e-014 3.18055e-015
rhumerus -36.6837 -7.3989 -80.9832
rradius 29.0752
rwrist 3.41337
rhand -18.7117 -11.2491
rfingers 7.12502
rthumb 7.58347 -41.0931
lclavicle 1.0197e-014 3.18055e-015
lhumerus -32.76 5.53722 88.9014
lradius 26.5282
lwrist -17.6923
lhand -10.1912 10.1272
lfingers 7.12502
lthumb 15.7995 39.5024
rfemur -13.759 -0.960292 16.0465
rtibia 34.7532
rfoot -22.4582 -12.9103
rtoes 4.92167
lfemur -16.6183 -4.39264 -19.1354
ltibia 36.8457
lfoot -22.5382 2.45436
ltoes 0.924911
143
root 1.61516 17.0909 33.9927 -174.453 -4.41274 178.786
lowerback 1.41915 -0.868079 -2.05927
upperback -3.13338 -1.26349 1.44289
thorax -3.94852 -0.576472 2.70642
lowerneck -19.2383 -0.851382 -2.59787
upperneck 24.0117 -1.38391 1.36605
head 10.9736 -0.94126 0.677192
rclavicle 9.15652e-015 -5.1684e-015
rhumerus -36.6262 -7.35196 -81.0069
rradius 29.0958
rwrist 3.39985
rhand -18.7202 -11.2707
rfingers 7.12502
rthumb 7.57522 -41.115
lclavicle 9.15652e-015 -5.1684e-015
lhumerus -32.7188 5.45606 88.9729
lradius 26.5784
lwrist -17.6315
lhand -10.199 10.1119
lfingers 7.12502
lthumb 15.792 39.4878
rfemur -13.8076 -0.952169 16.0198
rtibia 34.7661
rfoot -22.4805 -12.9236
rtoes 4.91553
lfemur -16.668 -4.39934 -19.1625
ltibia 36.8566
lfoot -22.5503 2.45825
ltoes 0.918423
144
root 1.61081 17.0907 33.9833 -174.379 -4.40571 178.773
lowerback 1.50067 -0.863007 -2.04473
upperback -3.08758 -1.2541 1.44926
thorax -3.9478 -0.571282 2.70535
lowerneck -19.234 -0.842471 -2.60271
upperneck 24.0199 -1.37307 1.37265
head 10.9756 -0.936306 0.681996
rclavicle 4.47615e-015 -7.15625e-015
rhumerus -36.5688 -7.2969 -81.0325
rradius 29.1174
rwrist 3.3827
rhand -18.7343 -11.3001
rfingers 7.12502
rthumb 7.56163 -41.1449
lclavicle 4.47615e-015 -7.15625e-015
lhumerus -32.6831 5.36826 89.0489
lradius 26.6406
lwrist -17.561
lhand -10.2039 10.1048
lfingers 7.12502
lthumb 15.7873 39.481
rfemur -13.8589 -0.942105 15.9926
rtibia 34.7747
rfoot -22.4988 -12.9347
rtoes 4.89914
lfemur -16.7189 -4.40784 -19.1905
ltibia 36.8665
lfoot -22.56 2.47175
ltoes 0.916236
145
root 1.6064 17.0907 33.9738 -174.302 -4.39072 178.76
lowerback 1.57977 -0.85615 -2.0318
upperback -3.0387 -1.24227 1.4559
thorax -3.94262 -0.564899 2.70524
lowerneck -19.2224 -0.833501 -2.60173
upperneck 24.0184 -1.36139 1.37141
head 10.9725 -0.931203 0.683164
rclavicle -1.09844e-014 -1.74931e-014
rhumerus -36.5059 -7.23909 -81.0605
rradius 29.139
rwrist 3.36505
rhand -18.7515 -11.3275
rfingers 7.12502
rthumb 7.54498 -41.173
lclavicle -1.09844e-014 -1.74931e-014
lhumerus -32.6469 5.27198 89.1284
lradius 26.7132
lwrist -17.4815
lhand -10.2093 10.1016
lfingers 7.12502
lthumb 15.7821 39.4782
rfemur -13.9121 -0.932327 15.9642
rtibia 34.7785
rfoot -22.5134 -12.942
rtoes 4.86901
lfemur -16.7707 -4.41512 -19.2198
ltibia 36.8747
lfoot -22.5686 2.49089
ltoes 0.920174
146
root 1.60196 17.0908 33.9641 -174.223 -4.37416 178.749
lowerback 1.66297 -0.850059 -2.02097
upperback -2.99312 -1.23175 1.46494
thorax -3.94304 -0.559041 2.709
lowerneck -19.19 -0.823733 -2.59701
upperneck 24.0056 -1.34785 1.36104
head 10.9611 -0.926174 0.680725
rclavicle 3.29237e-016 1.35174e-014
rhumerus -36.4486 -7.1709 -81.0886
rradius 29.1613
rwrist 3.34703
rhand -18.7698 -11.3324
rfingers 7.12502
rthumb 7.52731 -41.1784
lclavicle 3.29237e-016 1.35174e-014
lhumerus -32.6224 5.17179 89.2113
lradius 26.7975
lwrist -17.3942
lhand -10.2146 10.1045
lfingers 7.12502
lthumb 15.7769 39.4815
rfemur -13.9655 -0.925113 15.937
rtibia 34.7775
rfoot -22.525 -12.9487
rtoes 4.82193
lfemur -16.824 -4.42349 -19.2481
ltibia 36.8812
lfoot -22.5774 2.51193
ltoes 0.936575
147
root 1.59768 17.0909 33.9541 -174.143 -4.36476 178.737
lowerback 1.7505 -0.845353 -2.01056
upperback -2.94115 -1.22287 1.47358
thorax -3.93918 -0.554003 2.71261
lowerneck -19.1651 -0.81724 -2.58268
upperneck 23.9827 -1.33686 1.33873
head 10.9473 -0.922244 0.672033
rclavicle -1.16165e-015 6.75868e-015
rhumerus -36.3781 -7.10301 -81.1224
rradius 29.1909
rwrist 3.31647
rhand -18.7804 -11.3492
rfingers 7.12502
rthumb 7.51707 -41.1957
lclavicle -1.16165e-015 6.75868e-015
lhumerus -32.5887 5.05906 89.2976
lradius 26.8903
lwrist -17.2982
lhand -10.2185 10.112
lfingers 7.12502
lthumb 15.7733 39.4893
rfemur -14.0144 -0.922823 15.9126
rtibia 34.7718
rfoot -22.5375 -12.9589
rtoes 4.76291
lfemur -16.8771 -4.43481 -19.2738
ltibia 36.8858
lfoot -22.587 2.53054
ltoes 0.954713
148
root 1.59345 17.0911 33.944 -174.06 -4.36118 178.727
lowerback 1.83954 -0.842544 -2.00033
upperback -2.88776 -1.21653 1.48291
thorax -3.93453 -0.55025 2.71717
lowerneck -19.1314 -0.812348 -2.56058
upperneck 23.9464 -1.32679 1.30527
head 10.9267 -0.919074 0.657948
rclavicle -2.00648e-015 1.59028e-014
rhumerus -36.3032 -7.03153 -81.1597
rradius 29.2258
rwrist 3.27715
rhand -18.7804 -11.3665
rfingers 7.12502
rthumb 7.51716 -41.2129
lclavicle -2.00648e-015 1.59028e-014
lhumerus -32.5563 4.93847 89.3859
lradius 26.9937
lwrist -17.1937
lhand -10.2253 10.1175
lfingers 7.12502
lthumb 15.7667 39.4954
rfemur -14.0626 -0.926268 15.8904
rtibia 34.762
rfoot -22.55 -12.9697
rtoes 4.69855
lfemur -16.9334 -4.44671 -19.2969
ltibia 36.889
lfoot -22.5986 2.54512
ltoes 0.982155
149
root 1.58932 17.0913 33.9338 -173.974 -4.3615 178.717
lowerback 1.92271 -0.84176 -1.99194
upperback -2.8289 -1.21277 1.49221
thorax -3.92069 -0.547878 2.72264
lowerneck -19.0969 -0.809362 -2.52597
upperneck 23.9036 -1.31762 1.25313
head 10.9034 -0.917253 0.634919
rclavicle 1.44119e-015 6.75868e-015
rhumerus -36.2199 -6.95334 -81.204
rradius 29.2705
rwrist 3.22505
rhand -18.7706 -11.4117
rfingers 7.12502
rthumb 7.52658 -41.2578
lclavicle 1.44119e-015 6.75868e-015
lhumerus -32.5196 4.81371 89.4744
lradius 27.1051
lwrist -17.0815
lhand -10.2372 10.1177
lfingers 7.12502
lthumb 15.7552 39.4965
rfemur -14.1116 -0.935486 15.868
rtibia 34.7493
rfoot -22.5626 -12.9788
rtoes 4.62741
lfemur -16.9932 -4.45999 -19.3195
ltibia 36.8912
lfoot -22.6118 2.55808
ltoes 1.01388
